<svg xmlns="http://www.w3.org/2000/svg" width="256" height="256" viewBox="0 0 256 256" fill="none">
  <!-- Dark rounded square background -->
  <rect width="256" height="256" rx="48" fill="#1e1b4b"/>
  <!-- Tree/lightning bolt shape (adapted from favicon.svg) -->
  <path fill="#8b5cf6" d="M160 180c-4 6-12 3-12-4v-32c0-6-4-10-10-10H90c-4 0-6-4-4-8l36-52c4-6 0-14-6-14H56c-4 0-6-4-4-8l40-56c2-2 4-4 8-4h96c4 0 6 4 4 8l-36 52c-4 6 0 14 6 14h48c4 0 6 4 4 8l-60 84z"/>
  <!-- Glow accent -->
  <path fill="#a78bfa" d="M158 178c-3 5-10 2-10-4v-30c0-5-4-9-9-9H94c-4 0-6-4-4-8l34-50c3-5 0-12-5-12H60c-4 0-6-4-4-8l38-53c1-2 3-3 6-3h90c4 0 6 4 4 8l-34 50c-3 5 0 12 5 12h44c4 0 6 4 4 8l-55 77z" opacity="0.4"/>
  <!-- Subtle music note accent -->
  <circle cx="148" cy="108" r="48" fill="#6d28d9" opacity="0.15"/>
  <path fill="#fbbf24" opacity="0.8" d="M148 88v28l-16-6v18a8 8 0 1 1-8-6v-18c0-4 2-8 6-10l18-6z"/>
</svg>
